<svg width="32" height="32" viewBox="0 0 32 32" fill="none" xmlns="http://www.w3.org/2000/svg">
<circle cx="16" cy="16" r="16" fill="url(#gradient)"/>
<path d="M16 8C11.58 8 8 11.58 8 16C8 19.54 10.29 22.53 13.47 23.59C13.87 23.66 14.02 23.42 14.02 23.21C14.02 23.02 14.01 22.39 14.01 21.72C11.66 22.09 11.14 21.1 10.99 20.58C10.91 20.36 10.52 19.65 10.18 19.46C9.9 19.31 9.5 18.94 10.17 18.93C10.8 18.92 11.25 19.51 11.39 19.74C12.11 20.95 13.26 20.6 14.04 20.39C14.11 19.87 14.32 19.52 14.55 19.32C12.68 19.12 10.73 18.4 10.73 15.37C10.73 14.46 11.03 13.71 11.53 13.12C11.45 12.92 11.18 12.07 11.61 10.93C11.61 10.93 12.31 10.72 14.02 11.78C14.68 11.6 15.38 11.51 16.08 11.51C16.78 11.51 17.48 11.6 18.14 11.78C19.85 10.71 20.55 10.93 20.55 10.93C20.98 12.07 20.71 12.92 20.63 13.12C21.13 13.71 21.43 14.45 21.43 15.37C21.43 18.41 19.47 19.12 17.6 19.32C17.89 19.57 18.14 20.04 18.14 20.79C18.14 21.87 18.13 22.74 18.13 23.01C18.13 23.22 18.28 23.47 18.68 23.39C21.86 22.33 24.15 19.34 24.15 15.8C24.15 11.38 20.57 7.8 16.15 7.8L16 8Z" fill="white"/>
<defs>
<linearGradient id="gradient" x1="0" y1="0" x2="32" y2="32" gradientUnits="userSpaceOnUse">
<stop stop-color="#667eea"/>
<stop offset="1" stop-color="#764ba2"/>
</linearGradient>
</defs>
</svg>